<svg width="275" height="540" viewBox="0 0 275 540" fill="none" xmlns="http://www.w3.org/2000/svg">
<g clip-path="url(#clip0_23_1256)">
<path d="M53.1326 100.391C54.9562 93.3489 50.7259 86.1621 43.6841 84.3385C36.6423 82.515 29.4555 86.7452 27.6319 93.787C25.8084 100.829 30.0386 108.016 37.0804 109.839C44.1223 111.663 51.3091 107.433 53.1326 100.391Z" fill="#E8E5E3"/>
<path d="M106.812 48.8626C106.812 48.0723 91.403 51.6284 80.8666 60.0575C80.8666 60.0575 14.4873 91.4033 14.2239 101.808C13.9604 112.213 87.3201 188.997 100.227 168.056C100.227 168.056 106.812 163.841 103.125 157.651C99.437 151.461 97.5931 136.446 60.9791 99.569C60.9791 99.569 86.5299 77.4425 89.4274 74.9401C89.4274 74.9401 107.339 74.6767 105.232 72.5695C103.125 70.4622 95.3541 70.3305 95.3541 70.3305C95.3541 70.3305 113.925 59.1355 113.661 56.6332C113.529 53.9991 106.812 48.8626 106.812 48.8626Z" fill="#F0826C"/>
<path d="M73.4912 114.715C94.3006 138.685 100.227 152.646 103.125 157.651C106.813 163.841 100.227 168.056 100.227 168.056C91.5348 182.016 55.711 152.251 33.1895 127.886C46.8868 124.198 60.3207 119.983 73.4912 114.715Z" fill="#C75842"/>
<path d="M104.31 139.739C104.31 139.739 123.276 168.846 106.154 181.885C89.0324 194.923 59.9256 160.285 39.1162 138.554L74.94 108.92L104.31 139.739Z" fill="#556F83"/>
<path d="M69.145 533.8C69.145 530.508 115.242 527.874 172.007 527.874C228.903 527.874 274.868 530.508 274.868 533.8C274.868 537.093 228.771 539.727 172.007 539.727C115.242 539.595 69.145 536.961 69.145 533.8Z" fill="#E8E5E3"/>
<path d="M85.2133 516.547L85.6085 496.923L104.442 498.372L104.047 517.205L95.2229 532.615L79.2866 520.366L85.2133 516.547Z" fill="#F0826C"/>
<path d="M87.4521 497.45L101.94 528.269C101.94 528.269 99.1739 523.396 104.837 518.259V497.318H87.4521V497.45Z" fill="#C75842"/>
<path d="M82.3154 515.362C82.3154 515.362 87.3202 521.025 93.642 525.898C97.4614 528.796 103.125 516.415 104.969 514.835C105.364 514.571 105.759 514.835 105.891 515.362L108.13 535.644H52.1549C51.4964 535.644 50.8379 534.986 50.9696 534.064C53.9988 519.049 82.3154 515.362 82.3154 515.362Z" fill="#556F83"/>
<path d="M75.467 532.088C75.467 532.088 73.228 521.683 65.9843 519.84C65.9843 519.84 54.3942 523.659 51.6284 532.352H107.471" stroke="white" stroke-width="0.6215" stroke-miterlimit="10"/>
<path d="M106.154 519.444L94.6958 532.088" stroke="white" stroke-width="0.6215" stroke-miterlimit="10"/>
<path d="M174.904 519.049L169.109 500.216L189.392 499.557L193.738 519.444L186.231 532.615L170.295 520.366L174.904 519.049Z" fill="#F0826C"/>
<path d="M173.456 500.216L190.182 523.396C190.182 523.396 189.919 524.186 195.582 519.049L188.997 499.425L173.456 500.216Z" fill="#C75842"/>
<path d="M172.27 517.996C172.27 517.996 177.275 523.659 183.597 528.532C187.416 531.43 193.079 519.049 194.923 517.469C195.318 517.205 195.714 517.469 195.845 517.996L198.084 538.278H142.241C141.583 538.278 140.924 537.62 141.056 536.698C143.954 521.683 172.27 517.996 172.27 517.996Z" fill="#556F83"/>
<path d="M165.422 534.722C165.422 534.722 163.183 524.318 155.939 522.474C155.939 522.474 144.349 526.293 141.583 534.986H197.031" stroke="white" stroke-width="0.6215" stroke-miterlimit="10"/>
<path d="M196.109 521.947L184.65 534.591" stroke="white" stroke-width="0.6215" stroke-miterlimit="10"/>
<path d="M85.0812 272.498C85.0812 272.498 77.8375 358.501 77.1789 382.208C76.5204 405.915 82.5789 498.767 82.5789 498.767L106.549 498.635C106.549 498.635 131.968 334.662 161.075 277.371L85.0812 272.498Z" fill="#0B0B0B"/>
<path d="M95.0908 484.016L98.9103 375.227L115.769 311.482" stroke="white" stroke-width="0.5012" stroke-miterlimit="10"/>
<path d="M109.71 499.294L81.9203 498.767L80.3398 482.962H112.476L109.71 499.294Z" fill="#556F83"/>
<path d="M85.0815 272.498C85.0815 272.498 101.676 344.145 118.535 394.852C132.232 435.812 168.319 500.611 168.319 500.611L192.421 499.557L166.739 396.169C165.158 390.11 164.236 383.788 163.841 377.467C162.392 353.628 167.265 305.556 169.241 274.737L85.0815 272.498Z" fill="#212121"/>
<path d="M179.646 484.674C180.173 483.094 146.456 385.105 146.456 372.462C146.456 359.95 146.983 317.014 146.983 317.014" stroke="white" stroke-width="0.5012" stroke-miterlimit="10"/>
<path d="M195.187 499.294L168.319 500.611L159.231 485.728L193.08 484.016L195.187 499.294Z" fill="#556F83"/>
<path d="M150.012 123.012C150.012 123.012 187.548 126.832 189.919 157.914C192.289 188.997 176.617 317.936 176.617 317.936L73.3599 310.824L83.8963 165.29C84.2914 157.387 86.6621 149.749 91.0083 143.032C94.9595 136.841 91.14 132.495 93.7741 132.232L144.217 118.798L150.012 123.012Z" fill="#556F83"/>
<path d="M161.075 131.705C186.099 135.524 188.47 143.427 189.655 158.968C192.026 190.05 176.353 317.936 176.353 317.936L81.2622 311.482" fill="#556F83"/>
<path d="M136.183 88.9009L148.563 122.749C148.563 122.749 138.817 134.998 132.363 135.788C119.193 137.5 116.822 125.91 116.822 125.91L116.954 107.34L134.471 91.4033L136.183 88.9009Z" fill="#F0826C"/>
<path d="M134.734 91.4033L117.086 107.34L117.218 114.057C117.218 114.057 131.178 117.217 136.578 93.7739" fill="#C75842"/>
<path d="M105.628 244.708L71.2525 182.411C69.4087 179.119 66.2477 176.616 62.6917 175.826L11.0634 172.534C9.7463 172.27 8.69266 173.719 9.35119 174.904L42.4091 234.04C44.253 237.201 47.1505 239.571 50.5748 240.362L103.784 247.079C105.232 247.342 106.286 245.893 105.628 244.708Z" fill="#18203C"/>
<path d="M101.15 245.235L70.0672 185.572C68.2233 182.28 63.0868 179.119 59.3991 178.197L11.0634 175.563C9.7463 175.299 8.69266 176.748 9.35119 177.933L42.4091 237.069C44.253 240.23 47.1505 242.601 50.5748 243.391L99.3057 247.474C100.754 248 101.808 246.552 101.15 245.235Z" fill="#DCDCDC"/>
<path d="M83.2375 226.533C85.8716 228.113 116.822 254.717 141.583 266.966C148.432 270.39 157.387 262.488 159.89 255.376L182.938 194.792L145.402 175.826C145.271 176.221 138.685 213.889 133.285 226.928C131.31 231.537 132.495 230.879 128.149 229.298L94.3008 212.045C94.3008 212.045 91.5349 209.411 90.4813 207.567C88.5057 204.011 81.5254 200.192 81.5254 200.192L85.6082 207.567C86.3985 208.752 85.4765 209.148 82.9741 207.962L66.1159 200.85C66.1159 200.85 62.2964 200.06 64.272 201.509C66.2476 203.089 72.9645 207.172 73.228 207.304C77.4425 209.543 62.1647 202.299 62.2964 203.748C62.2964 205.196 71.1207 210.201 70.989 210.333C70.8573 210.465 61.3745 206.118 61.3745 207.435C61.3745 208.752 69.8036 212.967 70.067 212.967C70.5939 213.099 63.3501 209.148 63.3501 209.938C63.3501 211.255 81.7888 225.611 83.2375 226.533Z" fill="#F0826C"/>
<path d="M140.266 201.772C143.163 188.602 145.402 176.09 145.534 175.826L183.07 194.792L168.45 233.25C159.231 222.581 149.88 212.045 140.266 201.772Z" fill="#C75842"/>
<path d="M144.481 257.615C147.905 255.376 156.202 252.742 159.232 256.956C156.071 263.542 147.905 270.127 141.583 266.966C140.661 266.439 139.607 266.044 138.686 265.517C139.607 262.356 141.32 259.591 144.481 257.615Z" fill="#C75842"/>
<path d="M149.09 148.563C149.09 148.563 152.646 122.881 173.324 128.149C201.377 135.393 186.758 218.103 178.987 231.011L134.998 208.621L149.09 148.563Z" fill="#556F83"/>
<path d="M99.1739 69.5402C99.9641 75.2035 104.179 72.1743 104.179 72.1743C117.613 77.5742 135.524 88.1106 135.524 88.1106C135.524 88.1106 140.924 86.0034 140.661 84.6863C139.607 78.1011 137.763 66.9061 136.446 59.2672C135.656 54.3942 131.31 50.9698 126.437 51.2332C115.11 51.7601 96.5398 52.8137 95.091 53.3405C92.3252 54.3942 90.6131 60.9794 98.7788 61.1111C98.7788 61.1111 92.8521 62.955 93.6423 65.9842C94.4325 68.75 99.1739 69.5402 99.1739 69.5402Z" fill="black"/>
<path d="M134.997 83.8961C135.261 84.4229 136.051 84.4229 136.315 83.8961C137.5 82.1839 139.871 79.8132 141.978 85.0814C144.744 92.3252 136.71 92.4569 136.315 93.6422C135.393 95.8812 132.759 103.52 127.227 107.34C123.934 109.71 117.876 112.739 114.188 110.764C113.398 110.369 107.735 109.71 101.544 68.3549C101.544 68.3549 103.125 71.5158 106.944 69.9353C109.578 68.8817 111.291 66.1159 114.056 64.7988C116.427 63.6135 122.749 60.716 127.227 68.6183C129.334 72.306 133.154 80.8669 134.997 83.8961Z" fill="#F0826C"/>
<path d="M140.661 84.818L137.105 88.7692C137.237 88.7692 137.237 80.9986 140.661 84.818Z" fill="#C75842"/>
<path d="M108.525 88.7692L107.339 96.1446C107.339 96.2763 107.471 96.408 107.471 96.408L110.369 96.0129C110.5 96.0129 110.5 95.8812 110.5 95.7495L108.656 88.7692C108.788 88.5057 108.525 88.5057 108.525 88.7692Z" fill="#C75842"/>
<path d="M135.261 10.7998C141.188 4.08285 148.827 0 157.388 0C168.714 0 177.67 5.92672 177.67 17.1216C177.67 28.0532 164.105 30.6873 164.105 35.6921V40.3017H148.3L148.168 33.5848C148.168 25.8142 161.734 21.4679 161.734 16.8582C161.734 13.6973 158.441 12.9071 155.412 12.9071C151.724 12.9071 147.246 16.4631 144.349 19.7557L135.261 10.7998ZM155.412 43.7261C161.339 43.7261 165.422 47.8089 165.422 52.5503C165.422 57.2917 161.602 61.2428 155.412 61.2428C150.012 61.2428 145.798 57.0283 145.798 52.5503C145.798 48.4674 149.354 43.7261 155.412 43.7261Z" fill="#A6A6A6"/>
<path d="M100.359 27.7897C101.15 22.7849 103.52 18.5704 107.603 16.068C113.003 12.7754 118.93 12.9071 122.354 18.307C125.647 23.5752 119.983 28.8434 121.564 31.2141L122.881 33.4531L115.505 38.1944L113.398 35.0335C111.027 31.3458 116.164 25.2873 114.847 23.0484C113.925 21.4679 112.081 22.1264 110.632 23.0484C108.92 24.102 107.867 27.1312 107.471 29.6336L100.359 27.7897ZM119.983 37.6676C122.881 35.8237 126.042 36.614 127.491 38.9847C128.939 41.2236 128.281 44.2529 125.252 46.0967C122.618 47.6772 119.325 46.887 118.008 44.7797C116.822 42.8041 117.086 39.5115 119.983 37.6676Z" fill="#A6A6A6"/>
</g>
<defs>
<clipPath id="clip0_23_1256">
<rect width="275" height="539.595" fill="white"/>
</clipPath>
</defs>
</svg>
