<svg width="330" height="697" viewBox="0 0 330 697" fill="none" xmlns="http://www.w3.org/2000/svg">
<path d="M225.623 573.444L229.648 554.233L210.971 551.412L207.123 569.853L212.259 586.851L230.54 578.497L225.623 573.444Z" fill="#F0826C"/>
<path d="M227.733 554.332L206.69 581.106C206.69 581.106 210.48 576.979 206.116 570.702L210.822 550.296L227.763 554.203L227.733 554.332Z" fill="#C75842"/>
<path d="M228.712 572.94C228.712 572.94 222.562 577.333 215.307 580.661C210.934 582.626 208.198 569.29 206.757 567.335C206.431 566.99 205.987 567.158 205.74 567.641L199 586.902L253.543 599.482C254.184 599.63 254.974 599.136 255.053 598.208C255.475 582.897 228.712 572.94 228.712 572.94Z" fill="#556F83"/>
<path d="M231.627 590.778C231.627 590.778 236.147 581.142 243.62 580.974C243.62 580.974 254.055 587.3 254.796 596.392L200.382 583.842" stroke="white" stroke-width="0.6215" stroke-miterlimit="10"/>
<path d="M204.566 571.56L212.89 586.456" stroke="white" stroke-width="0.6215" stroke-miterlimit="10"/>
<path d="M233.724 690.927C233.724 687.634 187.627 685 130.862 685C73.9655 685 28.0004 687.634 28.0004 690.927C28.0004 694.219 74.0972 696.853 130.862 696.853C187.627 696.722 233.724 694.088 233.724 690.927Z" fill="#E8E5E3"/>
<path d="M130.18 671.624L135.975 652.79L115.692 652.132L111.346 672.019L118.853 685.19L134.789 672.941L130.18 671.624Z" fill="#F0826C"/>
<path d="M132.814 670.57C132.814 670.57 127.809 676.234 121.487 681.107C117.668 684.004 112.005 671.624 110.161 670.044C109.766 669.78 109.37 670.044 109.239 670.57L107 690.853H162.843C163.501 690.853 164.16 690.194 164.028 689.272C161.13 674.258 132.814 670.57 132.814 670.57Z" fill="#556F83"/>
<path d="M139.662 687.297C139.662 687.297 141.901 676.892 149.145 675.048C149.145 675.048 160.735 678.868 163.501 687.56H108.053" stroke="white" stroke-width="0.6215" stroke-miterlimit="10"/>
<path d="M158.676 17.2974C154.901 13.9894 150.768 8.44941 146.517 2.35149C149.258 1.95293 151.563 1.27538 152.795 0C155.775 6.37691 158.914 10.3625 163.603 15.5039C161.695 14.8662 160.464 16.6995 158.676 17.2974Z" fill="#C6EAE9"/>
<path d="M0.609375 109.922C2.07957 106.494 4.86103 102.509 7.96037 98.324C8.5564 100.436 9.27163 102.19 10.2253 102.987C6.76832 106.176 4.78157 109.165 2.35773 113.549C2.47693 111.955 1.2054 111.237 0.609375 109.922Z" fill="#FBD682"/>
<path d="M231.867 18.6525C233.536 14.8662 236.596 10.4023 240.053 5.77908C240.728 8.13057 241.483 10.0436 242.556 10.9603C238.741 14.5075 236.516 17.8554 233.814 22.7178C233.933 20.9242 232.543 20.1271 231.867 18.6525Z" fill="#708CD5"/>
<path d="M62.1585 80.9071C60.4896 77.1208 57.43 72.657 53.973 68.0337C53.2975 70.3852 52.5426 72.2983 51.4697 73.2149C55.2843 76.7621 57.5095 80.11 60.2114 84.9724C60.0922 83.2187 61.483 82.4216 62.1585 80.9071Z" fill="#D3DFFF"/>
<path d="M209.457 79.2331C204.728 80.3889 198.132 80.8672 191.02 81.2259C192.331 79.3128 193.245 77.5592 193.006 76.244C199.563 76.8418 204.41 76.3635 211.046 75.3671C209.417 76.3635 210.053 77.878 209.457 79.2331Z" fill="#F5C7BE"/>
<path d="M71.1791 23.9931C66.3711 26.8229 59.4175 29.0548 51.9473 31.0874C52.9009 27.6598 53.4572 24.6308 52.8612 22.5185C60.0135 22.1199 65.0996 20.3663 71.934 17.2974C70.4241 19.2503 71.4969 21.6018 71.1791 23.9931Z" fill="#EE6F57"/>
<path d="M56.6485 179.203C51.5139 177.021 45.5837 172.759 39.5064 167.963C42.8289 166.691 45.5948 165.336 46.9383 163.601C51.5129 169.113 55.9479 172.159 62.48 175.827C60.012 175.775 58.7599 178.036 56.6485 179.203Z" fill="#EE6F57"/>
<path d="M169.523 155.397C173.1 157.789 177.192 162.093 181.444 166.876C179.139 167.553 177.192 168.43 176.199 169.706C173.06 164.524 169.96 161.455 165.431 157.589C167.139 157.868 168.053 156.155 169.523 155.397Z" fill="#C6EAE9"/>
<path d="M107.974 159.184C111.55 161.575 115.642 165.879 119.894 170.662C117.589 171.34 115.642 172.216 114.649 173.492C111.51 168.311 108.411 165.242 103.881 161.376C105.589 161.655 106.503 159.901 107.974 159.184Z" fill="#FBD682"/>
<path d="M212.08 132.122C215.06 129.372 218.119 124.509 221.219 119.169C218.795 118.491 216.689 117.654 215.457 116.299C213.51 122.078 211.166 125.545 207.55 129.93C209.219 129.491 210.45 131.364 212.08 132.122Z" fill="#F5C7BE"/>
<path d="M277.046 61.0988C275.814 66.0409 272.993 72.099 269.774 78.436C268.543 75.8454 267.231 73.733 265.801 72.8961C269.655 67.7148 271.642 63.2111 273.946 56.7545C274.185 58.9067 275.973 59.5046 277.046 61.0988Z" fill="#D3DFFF"/>
<path d="M134.245 92.3443C133.013 97.2864 130.192 103.344 126.974 109.682C125.742 107.091 124.43 104.979 123 104.142C126.854 98.9603 128.841 94.4566 131.146 88C131.384 90.1522 133.172 90.75 134.245 92.3443Z" fill="#D3DFFF"/>
<path d="M239.417 167.912C240.331 171.539 242.397 175.963 244.742 180.626C245.655 178.713 246.609 177.159 247.642 176.601C244.821 172.814 243.351 169.506 241.682 164.763C241.523 166.278 240.172 166.716 239.417 167.912Z" fill="#D3DFFF"/>
<path d="M118.5 437.5L153.169 535.096L108.361 650.727L146 650.727L202.553 567.473C209.521 552.558 210.701 535.627 205.978 519.896L184.179 447.772L118.5 437.5Z" fill="#0B0B0B"/>
<path d="M147.952 407C184.808 409.642 222.702 416.265 256.44 430.888C274.627 438.776 280.639 463.78 272.363 481.827L238.959 554.495L204.5 546.5L221.292 475.055C128.207 477.845 118 443.539 118 443.539L147.952 407Z" fill="#212121"/>
<path d="M194.013 259.012C194.013 259.012 231.549 262.832 233.919 293.914C236.29 324.997 220.5 418.5 220.5 418.5L203.5 414.5L112.5 451L127.897 301.29C128.292 293.387 130.663 285.749 135.009 279.032C138.96 272.841 135.141 268.495 137.775 268.232L188.218 254.798L194.013 259.012Z" fill="#556F83"/>
<path d="M286.991 189.695C288.364 192.443 312.512 225.346 322.821 250.975C325.709 258.066 317.142 266.388 309.859 268.337L247.682 286.662L231.657 247.779C232.061 247.678 270.124 244.007 283.539 239.625C288.287 238.01 287.539 239.141 286.297 234.686L271.696 199.612C271.696 199.612 269.282 196.652 267.525 195.46C264.131 193.217 260.859 185.964 260.859 185.964L267.899 190.601C269.02 191.48 269.485 190.591 268.495 188.005L262.7 170.65C262.7 170.65 262.205 166.781 263.498 168.862C264.922 170.954 268.477 177.964 268.588 178.237C270.496 182.611 264.448 166.822 265.882 167.065C267.327 167.176 271.639 176.359 271.78 176.238C271.922 176.116 268.317 166.328 269.63 166.429C270.943 166.53 274.498 175.258 274.477 175.521C274.568 176.056 271.185 168.53 271.973 168.591C273.286 168.692 286.183 188.179 286.991 189.695Z" fill="#F0826C"/>
<path d="M204.191 249.361C204.191 249.361 178.311 250.933 181.975 271.955C187.042 300.481 270.631 292.261 284.097 285.505L265.154 239.925L204.191 249.361Z" fill="#556F83"/>
<path d="M161.475 369.874C158.606 370.971 123.487 391.765 96.969 399.505C89.6278 401.682 82.1884 392.338 80.9655 384.898L86.5 330.5L109.113 309.097C132 330.5 124.458 330.455 127.5 344.236C128.641 349.12 112.215 365.558 116.77 364.76L153.11 353.678C153.11 353.678 156.293 351.567 157.652 349.935C160.218 346.779 167.758 344.236 167.758 344.236L162.451 350.786C161.466 351.815 162.304 352.365 164.975 351.635L182.816 347.574C182.816 347.574 186.715 347.462 184.517 348.544C182.296 349.755 174.969 352.603 174.687 352.687C170.146 354.156 186.454 349.69 186.071 351.093C185.818 352.52 176.256 355.908 176.363 356.06C176.469 356.213 186.565 353.588 186.335 354.885C186.106 356.182 177.07 358.861 176.811 358.815C176.269 358.853 184.091 356.226 183.953 357.004C183.724 358.301 163.063 369.219 161.475 369.874Z" fill="#F0826C"/>
<path d="M111.774 283.577C111.774 283.577 135.852 257.084 155 266.5C180.959 279.368 136.259 343.471 125.996 354.5L82.9964 331.5L111.774 283.577Z" fill="#556F83"/>
<path d="M159.522 230.974L161.839 266.941C161.839 266.941 175.696 274.22 181.921 272.342C194.664 268.598 192.16 257.036 192.16 257.036L184.553 240.095L162.098 232.574L159.522 230.974Z" fill="#F0826C"/>
<path d="M161.856 232.68L184.432 240.148L187.019 246.348C187.019 246.348 175.518 254.869 161.125 235.593" fill="#C75842"/>
<path d="M185.584 198.335C187.144 203.837 182.066 202.764 182.066 202.764C171.95 213.122 159.806 229.985 159.806 229.985C159.806 229.985 154.015 230.234 153.725 228.922C152.034 222.471 149.208 211.483 147.333 203.962C146.092 199.184 148.689 194.298 153.254 192.574C163.832 188.489 181.251 181.967 182.789 181.865C185.745 181.714 189.967 187.05 182.547 190.462C182.547 190.462 188.714 189.76 189.213 192.851C189.604 195.701 185.584 198.335 185.584 198.335Z" fill="black"/>
<path d="M158.588 225.916C158.559 226.505 157.836 226.823 157.383 226.447C155.608 225.358 152.482 224.145 152.678 229.815C153.067 237.559 160.473 234.441 161.312 235.366C163.058 237.043 168.549 242.972 175.151 244.237C179.12 245.079 185.885 245.409 188.463 242.114C189.027 241.434 193.944 238.548 182.936 198.207C182.936 198.207 182.764 201.737 178.631 201.83C175.796 201.928 173.114 200.087 170.052 199.997C167.405 199.868 160.451 199.765 159.539 208.802C159.098 213.027 159.054 222.401 158.588 225.916Z" fill="#F0826C"/>
<path d="M153.778 229.043L158.625 231.225C158.505 231.278 155.372 224.167 153.778 229.043Z" fill="#C75842"/>
<path d="M184.779 219.703L188.837 225.974C188.891 226.095 188.823 226.268 188.823 226.268L186.012 227.075C185.892 227.128 185.839 227.008 185.785 226.887L184.659 219.756C184.432 219.568 184.673 219.462 184.779 219.703Z" fill="#C75842"/>
<path d="M171 449C184 453.333 220.9 461.2 236.5 462C233.5 481.5 226.5 515 219 545.5" stroke="white" stroke-width="0.5"/>
<path d="M154 474C157.5 487 167.5 510 173.5 540C165 563.5 139.5 619.5 127 648.5" stroke="white" stroke-width="0.5"/>
<path d="M200.577 554.708L236.668 565.325L243.384 550.86L201.828 538L200.577 554.708Z" fill="#556F83"/>
<path d="M106.813 659.651L138.5 661L152 645.754L108 644L106.813 659.651Z" fill="#556F83"/>
</svg>
